<?xml version="1.0" encoding="UTF-8"?>
<svg id="icon" xmlns="http://www.w3.org/2000/svg" version="1.1" viewBox="0 0 1000 1000">
  <defs>
    <style>
      .cls-1 {
        fill: #fff;
        stroke: #fff;
        stroke-miterlimit: 14.5;
        stroke-width: 3.6px;
      }
    </style>
  </defs>
  <g id="hash">
    <path class="cls-1" d="M521,911.6l-2.8,1.5c-18.7,7.9-40.2-.8-48.2-19.5L218.5,304.3c-8-18.7.7-40.4,19.4-48.4,18.7-8,40.4.7,48.4,19.4h0l251.2,589.3c7.6,17.6.4,38-16.6,47Z"/>
    <path class="cls-1" d="M754.6,743.1l-3.9,2.1c-18.9,7.4-40.3-2-47.6-20.9-.1-.4-.3-.7-.4-1.1l-17.9-46.9c-7.3-19.1,2.2-40.5,21.3-47.9,19.1-7.3,40.5,2.2,47.9,21.3h0l18,46.7c7.3,17.7-.2,38.1-17.3,46.8Z"/>
    <path class="cls-1" d="M656.5,510.8l-2.8,1.5c-18.7,8-40.3-.7-48.3-19.3,0,0,0,0,0,0l-153.3-357.3c-8-18.7.7-40.4,19.4-48.4,18.7-8,40.4.7,48.4,19.4h0l152.4,357.8c7.3,17.2.5,37.2-15.8,46.4Z"/>
    <path class="cls-1" d="M722.5,290l-2.8,1.5-589.4,251.4c-18.7,8-40.3-.7-48.3-19.3,0,0,0,0,0,0-7.9-18.7.8-40.2,19.5-48.2l589.3-251.6c18.3-8.8,40.3-1,49.1,17.3,8.8,18.3,1,40.3-17.3,49.1v-.2Z"/>
    <path class="cls-1" d="M891.8,523.2l-2.8,1.5-590.2,251.8c-18.7,8-40.3-.7-48.3-19.3,0,0,0,0,0,0-7.9-18.7.8-40.2,19.5-48.2l589.3-251.6c18.3-8.8,40.3-1,49.1,17.3,8.8,18.3,1,40.3-17.3,49.1l.7-.6Z"/>
  </g>
</svg>